<svg width="31" height="32" viewBox="0 0 31 32" fill="none" xmlns="http://www.w3.org/2000/svg">
<path d="M13.9201 0.320977C14.9312 -0.107045 16.075 -0.106982 17.0798 0.321104L28.2465 5.0576C29.6368 5.64721 30.6795 7.01729 30.6668 8.61613C30.6352 14.942 28.0569 26.4119 17.1683 31.6256C16.1129 32.1248 14.887 32.1248 13.8316 31.6256C2.9405 26.4119 0.364022 14.942 0.333056 8.61613C0.324841 7.01729 1.3644 5.64721 2.75344 5.0576L13.9201 0.320977ZM16.2899 2.18284C15.7843 1.96861 15.2156 1.96861 14.71 2.18284L3.54275 6.92249C2.82991 7.21951 2.35152 7.8957 2.35531 8.66037C2.38438 14.6007 4.84078 25.0785 14.7037 29.7992C15.2092 30.0394 15.7906 30.0394 16.2962 29.7992C26.161 25.0785 28.6193 14.6007 28.6446 8.66037C28.6509 7.8957 28.1706 7.21951 27.4565 6.92249L16.2899 2.18284Z" fill="#0A3161"/>
</svg>
