<svg width="47" height="32" viewBox="0 0 47 32" fill="none" xmlns="http://www.w3.org/2000/svg">
<path d="M22.5856 2.44282L4.04301 9.14271L9.32864 11.0498C10.0643 10.557 10.8643 10.1498 11.7143 9.82842L23.0999 5.55706C23.6927 5.33563 24.3498 5.63563 24.5713 6.22847C24.7927 6.82132 24.4927 7.47845 23.8998 7.69988L12.5143 11.9712C12.4072 12.007 12.3072 12.0498 12.2072 12.0927L22.5856 15.8426C22.8784 15.9497 23.1856 15.9997 23.4999 15.9997C23.8141 15.9997 24.1213 15.9426 24.4141 15.8426L42.9567 9.14271L24.4141 2.44282C24.1213 2.33568 23.8141 2.28568 23.4999 2.28568C23.1856 2.28568 22.8784 2.34282 22.5856 2.44282ZM21.807 17.9926L9.70721 13.6212C7.74296 15.2855 6.50726 17.7069 6.37155 20.3497C6.79297 21.2925 7.10011 22.3139 7.32868 23.3139C7.78581 25.2853 8.09295 28.021 7.47867 31.0781C7.41439 31.3852 7.23582 31.6495 6.97154 31.8209C6.70726 31.9924 6.38583 32.0424 6.08584 31.9638L1.51448 30.8209C1.14306 30.7281 0.843063 30.4567 0.714494 30.0924C0.585924 29.7281 0.650209 29.3281 0.878777 29.0281C1.49305 28.1924 2.02162 27.271 2.48589 26.3424C3.30017 24.6996 4.07158 22.5996 4.07158 20.5711C4.07158 20.5282 4.07158 20.4854 4.07873 20.4425C4.17873 17.514 5.36442 14.7926 7.3001 12.7498L1.77162 10.757C1.09306 10.507 0.643066 9.86413 0.643066 9.14271C0.643066 8.4213 1.09306 7.77845 1.77162 7.52845L21.807 0.292852C22.3499 0.0999983 22.9213 0 23.4999 0C24.0784 0 24.6498 0.0999983 25.1927 0.292852L45.2281 7.52845C45.9066 7.77131 46.3566 8.4213 46.3566 9.14271C46.3566 9.86413 45.9066 10.507 45.2281 10.757L25.1927 17.9926C24.6498 18.1854 24.0784 18.2854 23.4999 18.2854C22.9213 18.2854 22.3499 18.1854 21.807 17.9926ZM13.0929 17.2783L12.1 26.7353C12.15 26.7924 12.2286 26.8853 12.3643 26.9996C12.7929 27.371 13.5429 27.821 14.6428 28.2496C16.8142 29.0995 19.9499 29.7138 23.4999 29.7138C27.0498 29.7138 30.1855 29.0995 32.364 28.2424C33.464 27.8138 34.2068 27.3639 34.6425 26.9924C34.7782 26.8781 34.8568 26.7924 34.9068 26.7282L33.9068 17.2712L36.1211 16.4712L37.2139 26.8567C37.2139 29.3781 31.0712 31.9995 23.4999 31.9995C15.9285 31.9995 9.78578 29.3781 9.78578 26.8567L10.8786 16.4712L13.0929 17.2712V17.2783ZM34.964 26.6424C34.9662 26.641 34.9679 26.6389 34.969 26.6364C34.9701 26.634 34.9705 26.6313 34.9702 26.6287C34.9698 26.626 34.9687 26.6235 34.967 26.6215C34.9653 26.6194 34.9631 26.6179 34.9605 26.617C34.958 26.6162 34.9553 26.6161 34.9527 26.6167C34.9501 26.6173 34.9477 26.6186 34.9458 26.6205C34.944 26.6224 34.9426 26.6248 34.9421 26.6274C34.9415 26.6301 34.9416 26.6328 34.9425 26.6353C34.9403 26.6368 34.9385 26.6389 34.9375 26.6413C34.9364 26.6437 34.936 26.6464 34.9363 26.6491C34.9367 26.6517 34.9378 26.6542 34.9395 26.6563C34.9412 26.6583 34.9434 26.6599 34.946 26.6607C34.9485 26.6616 34.9512 26.6617 34.9538 26.6611C34.9564 26.6604 34.9588 26.6591 34.9607 26.6572C34.9625 26.6553 34.9638 26.6529 34.9644 26.6503C34.965 26.6477 34.9648 26.645 34.964 26.6424ZM12.0357 26.6424C12.0357 26.6443 12.0365 26.6461 12.0378 26.6475C12.0392 26.6488 12.041 26.6496 12.0429 26.6496C12.0448 26.6496 12.0466 26.6488 12.0479 26.6475C12.0493 26.6461 12.05 26.6443 12.05 26.6424C12.05 26.6405 12.0493 26.6387 12.0479 26.6374C12.0466 26.636 12.0448 26.6353 12.0429 26.6353C12.041 26.6353 12.0392 26.636 12.0378 26.6374C12.0365 26.6387 12.0357 26.6405 12.0357 26.6424ZM5.42871 29.4424C5.60727 27.9638 5.55013 26.5853 5.39299 25.3925C5.12157 26.1067 4.82157 26.771 4.52872 27.3639C4.2573 27.9067 3.96444 28.4496 3.63588 28.9924L5.42871 29.4424Z" fill="#B31942"/>
</svg>
