<svg width="25" height="32" viewBox="0 0 25 32" fill="none" xmlns="http://www.w3.org/2000/svg">
<path d="M5.5 10H9.5C10.05 10 10.5 9.55 10.5 9C10.5 8.45 10.05 8 9.5 8H5.5C4.9475 8 4.5 8.45 4.5 9C4.5 9.55 4.9475 10 5.5 10ZM5.5 6H9.5C10.05 6 10.5 5.5525 10.5 5C10.5 4.4475 10.05 4 9.5 4H5.5C4.9475 4 4.5 4.4475 4.5 5C4.5 5.5525 4.9475 6 5.5 6ZM23.3312 7.83125L16.675 1.175C15.9187 0.421375 14.9062 0 13.8438 0H4.5C2.29063 0 0.5 1.79063 0.5 4L0.500406 28C0.500406 30.2094 2.29103 32 4.50041 32H20.5C22.7094 32 24.5 30.2094 24.5 28V10.6562C24.5 9.59375 24.0812 8.58125 23.3312 7.83125ZM14.5 2.13C14.7798 2.22788 15.0416 2.37038 15.2575 2.58619L21.9137 9.24244C22.1313 9.45625 22.275 9.71875 22.3687 10H15.5C14.95 10 14.5 9.55 14.5 9V2.13ZM22.5 28C22.5 29.1025 21.6025 30 20.5 30H4.5C3.3975 30 2.5 29.1025 2.5 28V4C2.5 2.8975 3.3975 2 4.5 2H12.5V9C12.5 10.6562 13.8438 12 15.5 12H22.5V28ZM4.5 17V21C4.5 22.1025 5.3975 23 6.5 23H18.5C19.6025 23 20.5 22.1025 20.5 21V17C20.5 15.8975 19.6025 15 18.5 15H6.5C5.3975 15 4.5 15.9 4.5 17ZM18.5 21H6.5V17H18.5V21ZM19.5 26H15.5C14.9473 26 14.5 26.4473 14.5 27C14.5 27.5527 14.9473 28 15.5 28H19.5C20.0527 28 20.5 27.5527 20.5 27C20.5 26.4473 20.05 26 19.5 26Z" fill="#0A3161"/>
</svg>
