<svg width="33" height="24" viewBox="0 0 33 24" fill="none" xmlns="http://www.w3.org/2000/svg">
<path d="M19.475 4.35222L23.565 2.26122C24.58 1.74272 25.7 1.47222 26.84 1.47222H29.895C31.695 1.47222 32.89 3.33722 32.135 4.97222C31.21 6.97222 29.635 8.59722 27.665 9.58222L13.995 16.4172C13.66 16.5872 13.295 16.6722 12.92 16.6722H5.965C5.326 16.6722 4.716 16.4172 4.2655 15.9672L1.075 12.7772C0.32895 12.0322 0.496495 10.7822 1.4125 10.2572L2.5995 9.57722C3.263 9.20222 4.067 9.16222 4.765 9.42722L7.275 10.5872L11.425 8.46222L5.705 4.94222C4.663 4.26722 4.767 2.65222 5.93 2.12472L7.775 1.28672C8.73 0.851719 9.82 0.811219 10.805 1.17272L19.475 4.35222ZM6.595 3.58222L14.68 8.59722L7.325 12.3572L4.1155 10.9322C3.8825 10.8272 3.6145 10.8422 3.3935 10.9672L2.2065 11.6472L5.397 14.8372C5.545 14.9872 5.75 15.0722 5.965 15.0722H12.92C13.045 15.0722 13.17 15.0422 13.28 14.9872L26.95 8.15222C28.595 7.33222 29.91 5.97222 30.68 4.30222C30.945 3.72722 30.525 3.07222 29.895 3.07222H26.84C25.955 3.07222 25.08 3.28222 24.29 3.68722L19.58 6.09222L10.255 2.67722C9.665 2.45772 9.01 2.48222 8.435 2.74222L6.595 3.58222ZM31.7 21.4722C32.14 21.4722 32.5 21.8322 32.5 22.2722C32.5 22.7122 32.14 23.0722 31.7 23.0722H1.3C0.8582 23.0722 0.5 22.7122 0.5 22.2722C0.5 21.8322 0.8582 21.4722 1.3 21.4722H31.7Z" fill="#0A3161"/>
</svg>
