<svg width="25" height="32" viewBox="0 0 25 32" fill="none" xmlns="http://www.w3.org/2000/svg">
<path d="M9.59375 4.25C9.925 2.95625 11.1 2 12.5 2C13.9 2 15.075 2.95625 15.4062 4.25C15.5188 4.69375 15.9187 5 16.375 5H17.5C18.05 5 18.5 5.45 18.5 6V8H12.5H6.5V6C6.5 5.45 6.95 5 7.5 5H8.625C9.08125 5 9.48125 4.69375 9.59375 4.25ZM12.5 0C10.45 0 8.6875 1.2375 7.91875 3H7.5C6.19375 3 5.08125 3.8375 4.66875 5H4.5C2.29375 5 0.5 6.79375 0.5 9V28C0.5 30.2062 2.29375 32 4.5 32H20.5C22.7062 32 24.5 30.2062 24.5 28V9C24.5 6.79375 22.7062 5 20.5 5H20.3312C19.9187 3.8375 18.8062 3 17.5 3H17.0812C16.3125 1.2375 14.55 0 12.5 0ZM20.5 7C21.6063 7 22.5 7.89375 22.5 9V28C22.5 29.1063 21.6063 30 20.5 30H4.5C3.39375 30 2.5 29.1063 2.5 28V9C2.5 7.89375 3.39375 7 4.5 7V8C4.5 9.10625 5.39375 10 6.5 10H12.5H18.5C19.6063 10 20.5 9.10625 20.5 8V7ZM13.5 5C13.5 4.73478 13.3946 4.48043 13.2071 4.29289C13.0196 4.10536 12.7652 4 12.5 4C12.2348 4 11.9804 4.10536 11.7929 4.29289C11.6054 4.48043 11.5 4.73478 11.5 5C11.5 5.26522 11.6054 5.51957 11.7929 5.70711C11.9804 5.89464 12.2348 6 12.5 6C12.7652 6 13.0196 5.89464 13.2071 5.70711C13.3946 5.51957 13.5 5.26522 13.5 5ZM11.5 13C10.3938 13 9.5 13.8938 9.5 15V17H7.5C6.39375 17 5.5 17.8937 5.5 19V21C5.5 22.1063 6.39375 23 7.5 23H9.5V25C9.5 26.1063 10.3938 27 11.5 27H13.5C14.6062 27 15.5 26.1063 15.5 25V23H17.5C18.6063 23 19.5 22.1063 19.5 21V19C19.5 17.8937 18.6063 17 17.5 17H15.5V15C15.5 13.8938 14.6062 13 13.5 13H11.5ZM11.5 18V15H13.5V18C13.5 18.55 13.95 19 14.5 19H17.5V21H14.5C13.95 21 13.5 21.45 13.5 22V25H11.5V22C11.5 21.45 11.05 21 10.5 21H7.5V19H10.5C10.7625 19 11.0188 18.8937 11.2063 18.7062C11.3938 18.5187 11.5 18.2625 11.5 18Z" fill="#B31942"/>
</svg>
