<svg width="131" height="40" viewBox="0 0 131 40" fill="none" xmlns="http://www.w3.org/2000/svg">
<path d="M94.8827 1.63845C91.8493 0.533155 88.643 -0.02149 85.4146 0.000636825C74.9743 0.000636825 67.6009 5.25993 67.5487 12.8096C67.4834 18.356 72.7884 21.4815 76.8014 23.3347C80.9188 25.24 82.2956 26.4407 82.2825 28.1437C82.2564 30.7342 78.9939 31.9088 75.9596 31.9088C71.7901 31.9088 69.5128 31.328 66.0087 29.8729L64.7102 29.2661L63.229 37.9576C65.7673 39.0147 70.3415 39.9217 75.0657 40C86.165 40 93.421 34.7733 93.5059 26.7408C93.5972 22.3102 90.7261 18.9628 84.6838 16.1961C81.0101 14.4017 78.7328 13.2011 78.7328 11.3806C78.7328 9.76883 80.6839 8.04619 84.7621 8.04619C87.4763 7.98052 90.1737 8.48975 92.6772 9.54045L93.6559 9.97764L95.1372 1.57973L94.8827 1.63845ZM121.975 0.705355H113.819C111.28 0.705355 109.369 1.40355 108.259 3.92227L92.5728 39.4584H103.672L105.891 33.6314L119.437 33.6445C119.757 35.0082 120.735 39.4584 120.735 39.4584H130.523L121.975 0.705355ZM52.5342 0.379095H63.1116L56.495 39.1517H45.9308L52.5342 0.366045V0.379095ZM25.6831 21.7491L26.7793 27.1323L37.1152 0.705355H48.319L31.6732 39.4062H20.4956L11.3603 6.63674C11.2124 6.0964 10.8649 5.63234 10.3881 5.33823C7.09549 3.63736 3.60676 2.34662 0 1.4949L0.143554 0.67925H17.1678C19.4777 0.770603 21.3373 1.4949 21.9572 3.96142L25.6766 21.7686L25.6831 21.7491ZM108.925 25.7033L113.14 14.8585C113.088 14.9759 114.008 12.6203 114.543 11.1652L115.267 14.5126L117.714 25.6968H108.918L108.925 25.7033Z" fill="white"/>
</svg>
