<svg width="37" height="32" viewBox="0 0 37 32" fill="none" xmlns="http://www.w3.org/2000/svg">
<path d="M35.43 20.85C34.8362 20.3113 34.055 20.0144 33.235 20.0144C32.4537 20.0144 31.68 20.2799 31.0712 20.7719L27.2306 23.8475C27.1101 23.9441 26.9604 23.9966 26.8059 23.9966H24.2047C24.4937 23.3954 24.6109 22.7003 24.5015 21.9822C24.255 20.2312 22.6487 19 20.8925 19H11.8675C10.5706 19 9.36123 19.4216 8.27373 20.2025L5.86748 21.9981H1.54248C0.992418 21.9981 0.54248 22.4478 0.54248 22.9975C0.54248 23.5472 0.992355 23.9438 1.48623 23.9438L6.48686 23.9445L9.41561 21.7388C10.1106 21.2236 10.9544 20.9426 11.8137 20.9426H20.9825C21.8106 20.9426 22.4825 21.6138 22.4825 22.442C22.4825 23.2701 21.8106 23.9407 20.9825 23.9407H15.4862C14.9394 23.9407 14.4862 24.3936 14.4862 24.9401C14.4862 25.4867 14.9394 25.9395 15.4862 25.9395H26.7487C27.3503 25.9395 27.9362 25.7365 28.4125 25.3616L32.2637 22.2853C32.5294 22.0745 32.8575 21.9573 33.1775 21.9573C33.49 21.9573 33.7947 22.0667 34.0369 22.2853C34.6694 22.8553 34.6228 23.8153 33.9822 24.3235L27.6884 29.3597C27.2144 29.7387 26.6253 29.9453 26.0184 29.9453H1.54248C0.992418 29.9453 0.54248 30.3946 0.54248 30.944C0.54248 31.4935 0.992355 32 1.48623 32H26.0175C27.08 32 28.1037 31.6331 28.9312 30.9769L35.2375 25.9331C36.0031 25.3241 36.4562 24.4106 36.4312 23.4344C36.5737 22.4563 36.1112 21.5125 35.43 20.85ZM17.7362 11.925C17.305 11.8563 16.955 11.7563 15.3612 11.2188C14.8425 11.0375 14.2737 11.325 14.0925 11.85C13.9175 12.3688 14.1987 12.9375 14.7237 13.1125C16.5575 13.7357 17.01 13.8281 17.5419 13.9044V15C17.5419 15.5527 17.9903 16 18.5431 16C19.0959 16 19.5419 15.5527 19.5419 15V13.95C21.3994 13.7306 22.7037 12.7444 22.9812 11.2175C23.5112 8.3125 20.6737 7.54375 18.7987 7.03125L18.3487 6.90625C16.2175 6.25625 15.93 5.89875 16.0737 5.13938C16.2612 4.09938 17.8256 3.85688 19.2906 4.07375C19.7007 4.13429 20.1987 4.26419 20.8569 4.481C21.3803 4.65387 21.9487 4.36775 22.1187 3.8435C22.2925 3.31906 22.0074 2.7535 21.4819 2.581C20.7125 2.32806 20.07 2.17038 19.5444 2.09225V1C19.5444 0.44725 19.0982 0 18.5456 0C17.993 0 17.4862 0.44725 17.4862 1V2.05C15.68 2.27 14.38 3.25562 14.0487 4.7825C13.58 7.65 16.4362 8.45 17.805 8.83125L18.2737 8.9625C20.6625 9.61312 21.1744 9.9675 21.0119 10.8612C20.8237 11.9 19.2675 12.15 17.7362 11.925Z" fill="#0A3161"/>
</svg>
