<svg width="12" height="14" viewBox="0 0 12 14" fill="none" xmlns="http://www.w3.org/2000/svg">
<path d="M6.64968 13.6854C8.05605 11.9254 11.2636 7.65967 11.2636 5.26362C11.2636 2.35766 8.90591 0 5.99995 0C3.09399 0 0.736328 2.35766 0.736328 5.26362C0.736328 7.65967 3.94385 11.9254 5.35022 13.6854C5.68742 14.1049 6.31248 14.1049 6.64968 13.6854ZM5.99995 3.50908C6.46528 3.50908 6.91156 3.69393 7.2406 4.02297C7.56964 4.35201 7.75449 4.79829 7.75449 5.26362C7.75449 5.72895 7.56964 6.17523 7.2406 6.50427C6.91156 6.83331 6.46528 7.01816 5.99995 7.01816C5.53462 7.01816 5.08834 6.83331 4.7593 6.50427C4.43026 6.17523 4.24541 5.72895 4.24541 5.26362C4.24541 4.79829 4.43026 4.35201 4.7593 4.02297C5.08834 3.69393 5.53462 3.50908 5.99995 3.50908Z" fill="#00B894"/>
</svg>
