<svg width="31" height="32" viewBox="0 0 31 32" fill="none" xmlns="http://www.w3.org/2000/svg">
<path d="M22.6636 8C24.8748 8 26.6636 6.21125 26.6636 4C26.6636 1.78875 24.8748 0 22.6636 0C20.4523 0 18.6636 1.78875 18.6636 4C18.6636 6.21125 20.4511 8 22.6636 8ZM22.6636 2C23.7661 2 24.6636 2.8975 24.6636 4C24.6636 5.1025 23.7661 6 22.6636 6C21.5611 6 20.6636 5.1025 20.6636 4C20.6636 2.8975 21.5636 2 22.6636 2ZM30.2573 21.45L27.8148 12.9C27.3261 11.1812 25.7573 10 23.9698 10H19.5604C19.6261 10.325 19.6636 10.6562 19.6636 11C19.6636 11.3438 19.6261 11.675 19.5636 12H23.9729C24.8661 12 25.6504 12.5919 25.8961 13.4506L28.3386 22H21.6636V24H24.6636V31C24.6636 31.5527 25.1108 32 25.6636 32C26.2163 32 26.6636 31.5527 26.6636 31V24H28.3373C29.6636 24 30.6261 22.7313 30.2573 21.45ZM2.66357 14C2.66357 12.8975 3.56107 12 4.66357 12H9.76482C9.70107 11.675 9.66357 11.3438 9.66357 11C9.66357 10.6562 9.70107 10.325 9.76357 10H4.66357C2.4542 10 0.663574 11.7937 0.663574 14V20C0.663574 21.1044 1.5592 22 2.66357 22V31C2.66357 31.55 3.11107 32 3.66357 32C4.21607 32 4.66357 31.55 4.66357 31V22H7.66357V20H2.66357V14ZM6.66357 8C8.87482 8 10.6636 6.21125 10.6636 4C10.6636 1.78875 8.87607 0 6.66357 0C4.45107 0 2.66357 1.78875 2.66357 4C2.66357 6.21125 4.45295 8 6.66357 8ZM6.66357 2C7.76607 2 8.66357 2.8975 8.66357 4C8.66357 5.1025 7.76357 6 6.66357 6C5.56357 6 4.66357 5.1025 4.66357 4C4.66357 2.8975 5.56357 2 6.66357 2ZM14.6636 15C16.5979 15 18.1636 13.4344 18.1636 11.5C18.1636 9.56563 16.5448 8 14.6636 8C12.7823 8 11.1636 9.5625 11.1636 11.5C11.1636 13.4375 12.7261 15 14.6636 15ZM14.6636 10C15.4904 10 16.1636 10.6731 16.1636 11.5C16.1636 12.3269 15.4904 13 14.6636 13C13.8367 13 13.1636 12.325 13.1636 11.5C13.1636 10.675 13.8386 10 14.6636 10ZM16.6636 17H12.6636C11.0067 17 9.66357 18.3431 9.66357 20V24C9.66357 25.1044 10.5592 26 11.6636 26V30C11.6636 31.1044 12.5592 32 13.6636 32H15.6636C16.768 32 17.6636 31.1044 17.6636 30V26C18.768 26 19.6636 25.1044 19.6636 24V20C19.6636 18.3438 18.3198 17 16.6636 17ZM17.6636 24H15.6636V30H13.6636V24H11.6636V20C11.6636 19.4486 12.1122 19 12.6636 19H16.6636C17.2149 19 17.6636 19.4486 17.6636 20V24Z" fill="#0A3161"/>
</svg>
