<svg width="33" height="30" viewBox="0 0 33 30" fill="none" xmlns="http://www.w3.org/2000/svg">
<path d="M28.5 6H24.5V3C24.5 1.34563 23.1562 0 21.5 0H11.5C9.84375 0 8.5 1.34563 8.5 3V6H4.5C2.29063 6 0.5 7.79375 0.5 10V26C0.5 28.2094 2.29063 30 4.5 30H28.5C30.7094 30 32.5 28.2094 32.5 26V10C32.5 7.79375 30.7062 6 28.5 6ZM10.5 3C10.5 2.44812 10.95 2 11.5 2H21.5C22.05 2 22.5 2.44812 22.5 3V6H10.5V3ZM30.5 26C30.5 27.1025 29.6025 28 28.5 28H4.5C3.3975 28 2.5 27.1025 2.5 26V18H11.5V22C11.5 22.5527 11.9473 23 12.5 23H20.5C21.0527 23 21.5 22.5527 21.5 22V18H30.5V26ZM13.5 21V18H19.5V21H13.5ZM30.5 16H2.5V10C2.5 8.8975 3.3975 8 4.5 8H28.5C29.6025 8 30.5 8.8975 30.5 10V16Z" fill="#B31942"/>
</svg>
