<svg width="29" height="32" viewBox="0 0 29 32" fill="none" xmlns="http://www.w3.org/2000/svg">
<path d="M2.5 1C2.5 0.45 2.05 0 1.5 0C0.95 0 0.5 0.45 0.5 1V4V22.9375V25V31C0.5 31.55 0.95 32 1.5 32C2.05 32 2.5 31.55 2.5 31V24.5L8.51875 22.9937C11.0875 22.35 13.8063 22.65 16.175 23.8312C18.9375 25.2125 22.1437 25.3813 25.0312 24.2938L27.2 23.4813C27.9813 23.1875 28.5 22.4438 28.5 21.6063V4.13125C28.5 2.69375 26.9875 1.75625 25.7 2.4L25.1 2.7C22.2063 4.15 18.8 4.15 15.9062 2.7C13.7125 1.6 11.1937 1.325 8.8125 1.91875L2.5 3.5V1ZM2.5 19.6625L9.19375 18.225C11.2938 17.775 13.4813 17.95 15.4875 18.7313L17.1 19.3563C19.925 20.4563 23.0437 20.5313 25.925 19.575L26.5 19.3813V21.6063L24.3312 22.4188C21.9625 23.3063 19.3313 23.1688 17.0688 22.0375C14.275 20.6375 11.0687 20.2875 8.0375 21.0438L2.5 22.4375V19.6625ZM2.5 17.6187V15.1625L8.8875 13.7937C11.1625 13.3062 13.5313 13.55 15.6625 14.5L16.525 14.8875C19.6875 16.2937 23.275 16.3813 26.5 15.1313V17.2812L25.2938 17.6812C22.8625 18.4937 20.2187 18.425 17.8312 17.5L16.2188 16.875C13.85 15.9563 11.2687 15.75 8.78125 16.2812L2.5 17.6187ZM2.5 13.1187V5.5625L9.29375 3.8625C9.69375 3.7625 10.0938 3.69375 10.5 3.65625V11.5688C9.81875 11.6063 9.14375 11.6937 8.46875 11.8375L2.5 13.1187ZM12.5 11.6187V8.63125C13.5875 8.7625 14.65 9.05 15.6625 9.5L16.525 9.8875C19.6875 11.2937 23.275 11.3813 26.5 10.1313V12.9875L25.7938 13.2625C23.0625 14.325 20.0187 14.25 17.3375 13.0625L16.475 12.675C15.2063 12.1125 13.8625 11.7562 12.5 11.6187ZM12.5 6.61875V3.70625C13.3687 3.83125 14.2125 4.09375 15.0063 4.49375C18.4625 6.225 22.5312 6.225 25.9937 4.49375L26.5 4.2375V7.98125L25.7938 8.25625C23.0625 9.31875 20.0187 9.24375 17.3375 8.05625L16.475 7.66875C15.2063 7.10625 13.8625 6.75 12.5 6.6125V6.61875ZM6 7.5C6 7.23478 5.89464 6.98043 5.70711 6.79289C5.51957 6.60536 5.26522 6.5 5 6.5C4.73478 6.5 4.48043 6.60536 4.29289 6.79289C4.10536 6.98043 4 7.23478 4 7.5C4 7.76522 4.10536 8.01957 4.29289 8.20711C4.48043 8.39464 4.73478 8.5 5 8.5C5.26522 8.5 5.51957 8.39464 5.70711 8.20711C5.89464 8.01957 6 7.76522 6 7.5ZM8 7.5C8.26522 7.5 8.51957 7.39464 8.70711 7.20711C8.89464 7.01957 9 6.76522 9 6.5C9 6.23478 8.89464 5.98043 8.70711 5.79289C8.51957 5.60536 8.26522 5.5 8 5.5C7.73478 5.5 7.48043 5.60536 7.29289 5.79289C7.10536 5.98043 7 6.23478 7 6.5C7 6.76522 7.10536 7.01957 7.29289 7.20711C7.48043 7.39464 7.73478 7.5 8 7.5ZM6 10.5C6 10.2348 5.89464 9.98043 5.70711 9.79289C5.51957 9.60536 5.26522 9.5 5 9.5C4.73478 9.5 4.48043 9.60536 4.29289 9.79289C4.10536 9.98043 4 10.2348 4 10.5C4 10.7652 4.10536 11.0196 4.29289 11.2071C4.48043 11.3946 4.73478 11.5 5 11.5C5.26522 11.5 5.51957 11.3946 5.70711 11.2071C5.89464 11.0196 6 10.7652 6 10.5ZM8 10.5C8.26522 10.5 8.51957 10.3946 8.70711 10.2071C8.89464 10.0196 9 9.76522 9 9.5C9 9.23478 8.89464 8.98043 8.70711 8.79289C8.51957 8.60536 8.26522 8.5 8 8.5C7.73478 8.5 7.48043 8.60536 7.29289 8.79289C7.10536 8.98043 7 9.23478 7 9.5C7 9.76522 7.10536 10.0196 7.29289 10.2071C7.48043 10.3946 7.73478 10.5 8 10.5Z" fill="#B31942"/>
</svg>
