<svg width="25" height="32" viewBox="0 0 25 32" fill="none" xmlns="http://www.w3.org/2000/svg">
<path d="M9.59375 4.25C9.925 2.95625 11.1 2 12.5 2C13.9 2 15.075 2.95625 15.4062 4.25C15.5187 4.69375 15.9187 5 16.375 5H17.5C18.05 5 18.5 5.45 18.5 6V8H12.5H6.5V6C6.5 5.45 6.95 5 7.5 5H8.625C9.08125 5 9.48125 4.69375 9.59375 4.25ZM12.5 0C10.45 0 8.6875 1.2375 7.91875 3H7.5C6.19375 3 5.08125 3.8375 4.66875 5H4.5C2.29375 5 0.5 6.79375 0.5 9V28C0.5 30.2062 2.29375 32 4.5 32H20.5C22.7062 32 24.5 30.2062 24.5 28V9C24.5 6.79375 22.7062 5 20.5 5H20.3312C19.9187 3.8375 18.8062 3 17.5 3H17.0812C16.3125 1.2375 14.55 0 12.5 0ZM20.5 7C21.6063 7 22.5 7.89375 22.5 9V28C22.5 29.1063 21.6063 30 20.5 30H4.5C3.39375 30 2.5 29.1063 2.5 28V9C2.5 7.89375 3.39375 7 4.5 7V8C4.5 9.10625 5.39375 10 6.5 10H12.5H18.5C19.6063 10 20.5 9.10625 20.5 8V7ZM13.5 5C13.5 4.73478 13.3946 4.48043 13.2071 4.29289C13.0196 4.10536 12.7652 4 12.5 4C12.2348 4 11.9804 4.10536 11.7929 4.29289C11.6054 4.48043 11.5 4.73478 11.5 5C11.5 5.26522 11.6054 5.51957 11.7929 5.70711C11.9804 5.89464 12.2348 6 12.5 6C12.7652 6 13.0196 5.89464 13.2071 5.70711C13.3946 5.51957 13.5 5.26522 13.5 5ZM19.2062 15.7063C19.5937 15.3188 19.5937 14.6812 19.2062 14.2937C18.8187 13.9062 18.1813 13.9062 17.7938 14.2937L10.5 21.5875L7.20625 18.2938C6.81875 17.9063 6.18125 17.9063 5.79375 18.2938C5.40625 18.6813 5.40625 19.3187 5.79375 19.7062L9.79375 23.7062C10.1812 24.0937 10.8188 24.0937 11.2063 23.7062L19.2062 15.7063Z" fill="#B31942"/>
</svg>
