<svg width="15" height="14" viewBox="0 0 15 14" fill="none" xmlns="http://www.w3.org/2000/svg">
<path d="M7.5 0C3.63359 0 0.5 3.13359 0.5 7C0.5 10.8664 3.63359 14 7.5 14C11.3664 14 14.5 10.8664 14.5 7C14.5 3.13359 11.3664 0 7.5 0ZM7.5 13.125C4.12305 13.125 1.375 10.377 1.375 7C1.375 3.62305 4.12305 0.875 7.5 0.875C10.877 0.875 13.625 3.62305 13.625 7C13.625 10.377 10.877 13.125 7.5 13.125ZM9.35664 5.14336C9.52754 5.31426 9.80453 5.31426 9.97516 5.14336C10.1458 4.97246 10.1461 4.69547 9.97516 4.52484C8.65418 3.20195 6.34664 3.20195 5.02594 4.52484C4.36367 5.18711 4 6.06484 4 7C4 7.93516 4.36395 8.81398 5.02539 9.47461C5.68711 10.1363 6.56484 10.5 7.5 10.5C8.43516 10.5 9.31398 10.1361 9.97461 9.47461C10.1455 9.30371 10.1455 9.02672 9.97461 8.85609C9.80371 8.68547 9.52672 8.6852 9.35609 8.85609C8.36488 9.84731 6.63539 9.84731 5.64281 8.85609C5.12383 8.36172 4.875 7.70273 4.875 7C4.875 6.29727 5.12383 5.63965 5.64391 5.14391C6.63594 4.15352 8.36406 4.15352 9.35664 5.14336Z" fill="white"/>
</svg>
