<svg width="66" height="40" viewBox="0 0 66 40" fill="none" xmlns="http://www.w3.org/2000/svg">
<path d="M24.1348 4.27734H41.6348V35.7218H24.1348V4.27734Z" fill="#FF5F00"/>
<path d="M25.2457 20C25.2457 13.6111 28.2456 7.94445 32.8568 4.27778C29.4679 1.61112 25.1901 0 20.5234 0C9.46788 0 0.523438 8.94445 0.523438 20C0.523438 31.0556 9.46788 40 20.5234 40C25.1901 40 29.4679 38.3889 32.8568 35.7222C28.2456 32.1111 25.2457 26.3889 25.2457 20Z" fill="#EB001B"/>
<path d="M65.2454 20C65.2454 31.0556 56.301 40 45.2454 40C40.5788 40 36.301 38.3889 32.9121 35.7222C37.5788 32.0556 40.5232 26.3889 40.5232 20C40.5232 13.6111 37.5232 7.94445 32.9121 4.27778C36.301 1.61112 40.5788 0 45.2454 0C56.301 0 65.2454 9 65.2454 20Z" fill="#F79E1B"/>
</svg>
