<svg width="15" height="14" viewBox="0 0 15 14" fill="none" xmlns="http://www.w3.org/2000/svg">
<path d="M1.28176 0.217957C0.988031 -0.0726522 0.513057 -0.0726522 0.219324 0.217957C-0.07441 0.508565 -0.0712852 0.986664 0.219324 1.2804L5.93776 6.99883L0.219324 12.7173C-0.07441 13.011 -0.07441 13.486 0.219324 13.7766C0.513057 14.0672 0.988031 14.0703 1.27864 13.7766L6.99707 8.05814L12.7186 13.7797C13.0124 14.0734 13.4873 14.0734 13.7779 13.7797C14.0686 13.486 14.0717 13.011 13.7779 12.7204L8.05951 7.00195L13.7811 1.2804C14.0748 0.986664 14.0748 0.51169 13.7811 0.221081C13.4873 -0.0695274 13.0124 -0.0726522 12.7218 0.221081L7.00332 5.93951L1.28176 0.217957Z" fill="#EA4C4C"/>
</svg>
