<svg width="19" height="24" viewBox="0 0 19 24" fill="none" xmlns="http://www.w3.org/2000/svg">
<path d="M12.7831 9.02335C12.7831 11.1006 11.1006 12.7831 9.02335 12.7831C6.9461 12.7831 5.26362 11.1006 5.26362 9.02335C5.26362 6.9461 6.9461 5.26362 9.02335 5.26362C11.1006 5.26362 12.7831 6.9461 12.7831 9.02335ZM9.02335 11.2792C10.2688 11.2792 11.2792 10.2688 11.2792 9.02335C11.2792 7.77794 10.2688 6.76751 9.02335 6.76751C7.77794 6.76751 6.76751 7.77794 6.76751 9.02335C6.76751 10.2688 7.77794 11.2792 9.02335 11.2792ZM18.0467 9.02335C18.0467 13.1309 12.5481 20.4435 10.1372 23.4607C9.55911 24.1798 8.48759 24.1798 7.90953 23.4607C5.45631 20.4435 0 13.1309 0 9.02335C0 4.03983 4.03983 0 9.02335 0C14.005 0 18.0467 4.03983 18.0467 9.02335ZM9.02335 1.50389C4.86885 1.50389 1.50389 4.86885 1.50389 9.02335C1.50389 9.7565 1.75908 10.7622 2.28216 12.0029C2.79489 13.2201 3.51535 14.5408 4.33027 15.8614C5.93097 18.4603 7.82964 20.9464 9.02335 22.4456C10.2171 20.9464 12.1157 18.4603 13.7183 15.8614C14.5314 14.5408 15.2504 13.2201 15.7627 12.0029C16.289 10.7622 16.5428 9.7565 16.5428 9.02335C16.5428 4.86885 13.1779 1.50389 9.02335 1.50389Z" fill="#333333"/>
</svg>
