<svg width="18" height="24" viewBox="0 0 18 24" fill="none" xmlns="http://www.w3.org/2000/svg">
<path d="M6.82031 3.1875C7.06875 2.21719 7.95 1.5 9 1.5C10.05 1.5 10.9312 2.21719 11.1797 3.1875C11.2641 3.52031 11.5641 3.75 11.9062 3.75H12.75C13.1625 3.75 13.5 4.0875 13.5 4.5V6H9H4.5V4.5C4.5 4.0875 4.8375 3.75 5.25 3.75H6.09375C6.43594 3.75 6.73594 3.52031 6.82031 3.1875ZM9 0C7.4625 0 6.14062 0.928125 5.56406 2.25H5.25C4.27031 2.25 3.43594 2.87812 3.12656 3.75H3C1.34531 3.75 0 5.09531 0 6.75V21C0 22.6547 1.34531 24 3 24H15C16.6547 24 18 22.6547 18 21V6.75C18 5.09531 16.6547 3.75 15 3.75H14.8734C14.5641 2.87812 13.7297 2.25 12.75 2.25H12.4359C11.8594 0.928125 10.5375 0 9 0ZM15 5.25C15.8297 5.25 16.5 5.92031 16.5 6.75V21C16.5 21.8297 15.8297 22.5 15 22.5H3C2.17031 22.5 1.5 21.8297 1.5 21V6.75C1.5 5.92031 2.17031 5.25 3 5.25V6C3 6.82969 3.67031 7.5 4.5 7.5H9H13.5C14.3297 7.5 15 6.82969 15 6V5.25ZM9.75 3.75C9.75 3.55109 9.67098 3.36032 9.53033 3.21967C9.38968 3.07902 9.19891 3 9 3C8.80109 3 8.61032 3.07902 8.46967 3.21967C8.32902 3.36032 8.25 3.55109 8.25 3.75C8.25 3.94891 8.32902 4.13968 8.46967 4.28033C8.61032 4.42098 8.80109 4.5 9 4.5C9.19891 4.5 9.38968 4.42098 9.53033 4.28033C9.67098 4.13968 9.75 3.94891 9.75 3.75ZM14.0297 11.7797C14.3203 11.4891 14.3203 11.0109 14.0297 10.7203C13.7391 10.4297 13.2609 10.4297 12.9703 10.7203L7.5 16.1906L5.02969 13.7203C4.73906 13.4297 4.26094 13.4297 3.97031 13.7203C3.67969 14.0109 3.67969 14.4891 3.97031 14.7797L6.97031 17.7797C7.26094 18.0703 7.73906 18.0703 8.02969 17.7797L14.0297 11.7797Z" fill="#333333"/>
</svg>
