<svg width="24" height="20" viewBox="0 0 24 20" fill="none" xmlns="http://www.w3.org/2000/svg">
<path d="M21.3333 0.666504H2.66667C1.19375 0.666504 0 1.86025 0 3.33317V16.6665C0 18.1394 1.19375 19.3332 2.66667 19.3332H21.3333C22.8063 19.3332 24 18.1394 24 16.6665V3.33317C24 1.86025 22.8042 0.666504 21.3333 0.666504ZM4 17.9998H2.66667C1.93167 17.9998 1.33333 17.4015 1.33333 16.6665V3.33317C1.33333 2.59817 1.93167 1.99984 2.66667 1.99984H4V17.9998ZM18.6667 17.9998H5.33333V1.99984H18.6667V17.9998ZM22.6667 16.6665C22.6667 17.4015 22.0683 17.9998 21.3333 17.9998H20V1.99984H21.3333C22.0683 1.99984 22.6667 2.59817 22.6667 3.33317V16.6665ZM8.66667 11.3332H10.6667V13.3332C10.6667 13.6998 10.9667 13.9998 11.3333 13.9998H12.6667C13.0348 13.9998 13.3333 13.7013 13.3333 13.3332V11.3332H15.3333C15.7 11.3332 16 11.0332 16 10.6665V9.33317C16 8.9665 15.7 8.6665 15.3333 8.6665H13.3333V6.6665C13.3333 6.29984 13.0333 5.99984 12.6667 5.99984H11.3333C10.9667 5.99984 10.6667 6.29984 10.6667 6.6665V8.6665H8.66667C8.3 8.6665 8 8.9665 8 9.33317V10.6665C8 11.0332 8.3 11.3332 8.66667 11.3332Z" fill="#333333"/>
</svg>
