<svg width="23" height="24" viewBox="0 0 23 24" fill="none" xmlns="http://www.w3.org/2000/svg">
<path d="M16.5 6C18.1584 6 19.5 4.65844 19.5 3C19.5 1.34156 18.1584 0 16.5 0C14.8416 0 13.5 1.34156 13.5 3C13.5 4.65844 14.8406 6 16.5 6ZM16.5 1.5C17.3269 1.5 18 2.17313 18 3C18 3.82687 17.3269 4.5 16.5 4.5C15.6731 4.5 15 3.82687 15 3C15 2.17313 15.675 1.5 16.5 1.5ZM22.1953 16.0875L20.3634 9.675C19.9969 8.38594 18.8203 7.5 17.4797 7.5H14.1727C14.2219 7.74375 14.25 7.99219 14.25 8.25C14.25 8.50781 14.2219 8.75625 14.175 9H17.482C18.1519 9 18.7402 9.44395 18.9244 10.088L20.7562 16.5H15.75V18H18V23.25C18 23.6646 18.3354 24 18.75 24C19.1646 24 19.5 23.6646 19.5 23.25V18H20.7553C21.75 18 22.4719 17.0484 22.1953 16.0875ZM1.5 10.5C1.5 9.67313 2.17313 9 3 9H6.82594C6.77812 8.75625 6.75 8.50781 6.75 8.25C6.75 7.99219 6.77813 7.74375 6.825 7.5H3C1.34297 7.5 0 8.84531 0 10.5V15C0 15.8283 0.671719 16.5 1.5 16.5V23.25C1.5 23.6625 1.83562 24 2.25 24C2.66438 24 3 23.6625 3 23.25V16.5H5.25V15H1.5V10.5ZM4.5 6C6.15844 6 7.5 4.65844 7.5 3C7.5 1.34156 6.15938 0 4.5 0C2.84062 0 1.5 1.34156 1.5 3C1.5 4.65844 2.84203 6 4.5 6ZM4.5 1.5C5.32687 1.5 6 2.17313 6 3C6 3.82687 5.325 4.5 4.5 4.5C3.675 4.5 3 3.82687 3 3C3 2.17313 3.675 1.5 4.5 1.5ZM10.5 11.25C11.9508 11.25 13.125 10.0758 13.125 8.625C13.125 7.17422 11.9109 6 10.5 6C9.08906 6 7.875 7.17188 7.875 8.625C7.875 10.0781 9.04688 11.25 10.5 11.25ZM10.5 7.5C11.1202 7.5 11.625 8.00484 11.625 8.625C11.625 9.24516 11.1202 9.75 10.5 9.75C9.87984 9.75 9.375 9.24375 9.375 8.625C9.375 8.00625 9.88125 7.5 10.5 7.5ZM12 12.75H9C7.75734 12.75 6.75 13.7573 6.75 15V18C6.75 18.8283 7.42172 19.5 8.25 19.5V22.5C8.25 23.3283 8.92172 24 9.75 24H11.25C12.0783 24 12.75 23.3283 12.75 22.5V19.5C13.5783 19.5 14.25 18.8283 14.25 18V15C14.25 13.7578 13.2422 12.75 12 12.75ZM12.75 18H11.25V22.5H9.75V18H8.25V15C8.25 14.5865 8.58647 14.25 9 14.25H12C12.4135 14.25 12.75 14.5865 12.75 15V18Z" fill="#333333"/>
</svg>
