<svg width="24" height="18" viewBox="0 0 24 18" fill="none" xmlns="http://www.w3.org/2000/svg">
<path d="M11.52 1.8826L1.785 5.4001L4.56 6.40135C4.94625 6.1426 5.36625 5.92885 5.8125 5.7601L11.79 3.5176C12.1013 3.40135 12.4463 3.55885 12.5625 3.8701C12.6788 4.18135 12.5213 4.52635 12.21 4.6426L6.2325 6.8851C6.17625 6.90385 6.12375 6.92635 6.07125 6.94885L11.52 8.9176C11.6738 8.97385 11.835 9.0001 12 9.0001C12.165 9.0001 12.3263 8.9701 12.48 8.9176L22.215 5.4001L12.48 1.8826C12.3263 1.82635 12.165 1.8001 12 1.8001C11.835 1.8001 11.6738 1.8301 11.52 1.8826ZM11.1112 10.0463L4.75875 7.75135C3.7275 8.6251 3.07875 9.89635 3.0075 11.2838C3.22875 11.7788 3.39 12.3151 3.51 12.8401C3.75 13.8751 3.91125 15.3113 3.58875 16.9163C3.555 17.0776 3.46125 17.2163 3.3225 17.3063C3.18375 17.3963 3.015 17.4226 2.8575 17.3813L0.4575 16.7813C0.2625 16.7326 0.105 16.5901 0.0375 16.3988C-0.03 16.2076 0.00375 15.9976 0.12375 15.8401C0.44625 15.4013 0.72375 14.9176 0.9675 14.4301C1.395 13.5676 1.8 12.4651 1.8 11.4001C1.8 11.3776 1.8 11.3551 1.80375 11.3326C1.85625 9.7951 2.47875 8.36635 3.495 7.29385L0.5925 6.2476C0.23625 6.11635 0 5.77885 0 5.4001C0 5.02135 0.23625 4.68385 0.5925 4.5526L11.1112 0.753848C11.3962 0.652598 11.6963 0.600098 12 0.600098C12.3038 0.600098 12.6038 0.652598 12.8888 0.753848L23.4075 4.5526C23.7638 4.6801 24 5.02135 24 5.4001C24 5.77885 23.7638 6.11635 23.4075 6.2476L12.8888 10.0463C12.6038 10.1476 12.3038 10.2001 12 10.2001C11.6963 10.2001 11.3962 10.1476 11.1112 10.0463ZM6.53625 9.67135L6.015 14.6363C6.04125 14.6663 6.0825 14.7151 6.15375 14.7751C6.37875 14.9701 6.7725 15.2063 7.35 15.4313C8.49 15.8776 10.1363 16.2001 12 16.2001C13.8638 16.2001 15.51 15.8776 16.6538 15.4276C17.2313 15.2026 17.6213 14.9663 17.85 14.7713C17.9213 14.7113 17.9625 14.6663 17.9888 14.6326L17.4638 9.6676L18.6263 9.2476L19.2 14.7001C19.2 16.0238 15.975 17.4001 12 17.4001C8.025 17.4001 4.8 16.0238 4.8 14.7001L5.37375 9.2476L6.53625 9.6676V9.67135ZM18.0188 14.5876C18.0199 14.5868 18.0208 14.5857 18.0214 14.5844C18.022 14.5832 18.0222 14.5818 18.022 14.5804C18.0218 14.579 18.0212 14.5777 18.0204 14.5766C18.0195 14.5755 18.0183 14.5747 18.0169 14.5743C18.0156 14.5738 18.0142 14.5737 18.0128 14.5741C18.0115 14.5744 18.0102 14.5751 18.0092 14.5761C18.0082 14.5771 18.0076 14.5784 18.0073 14.5797C18.007 14.5811 18.007 14.5825 18.0075 14.5838C18.0063 14.5846 18.0054 14.5857 18.0048 14.587C18.0043 14.5883 18.0041 14.5897 18.0042 14.5911C18.0044 14.5925 18.005 14.5938 18.0059 14.5949C18.0068 14.5959 18.008 14.5968 18.0093 14.5972C18.0106 14.5976 18.0121 14.5977 18.0134 14.5974C18.0148 14.597 18.016 14.5963 18.017 14.5953C18.018 14.5943 18.0187 14.5931 18.019 14.5917C18.0193 14.5903 18.0192 14.5889 18.0188 14.5876ZM5.98125 14.5876C5.98125 14.5886 5.98165 14.5895 5.98235 14.5903C5.98305 14.591 5.98401 14.5913 5.985 14.5913C5.98599 14.5913 5.98695 14.591 5.98765 14.5903C5.98836 14.5895 5.98875 14.5886 5.98875 14.5876C5.98875 14.5866 5.98836 14.5856 5.98765 14.5849C5.98695 14.5842 5.98599 14.5838 5.985 14.5838C5.98401 14.5838 5.98305 14.5842 5.98235 14.5849C5.98165 14.5856 5.98125 14.5866 5.98125 14.5876ZM2.5125 16.0576C2.60625 15.2813 2.57625 14.5576 2.49375 13.9313C2.35125 14.3063 2.19375 14.6551 2.04 14.9663C1.8975 15.2513 1.74375 15.5363 1.57125 15.8213L2.5125 16.0576Z" fill="#333333"/>
</svg>
