<svg width="21" height="24" viewBox="0 0 21 24" fill="none" xmlns="http://www.w3.org/2000/svg">
<path d="M1.5 0.75C1.5 0.3375 1.1625 0 0.75 0C0.3375 0 0 0.3375 0 0.75V3V17.2031V18.75V23.25C0 23.6625 0.3375 24 0.75 24C1.1625 24 1.5 23.6625 1.5 23.25V18.375L6.01406 17.2453C7.94063 16.7625 9.97969 16.9875 11.7563 17.8734C13.8281 18.9094 16.2328 19.0359 18.3984 18.2203L20.025 17.6109C20.6109 17.3906 21 16.8328 21 16.2047V3.09844C21 2.02031 19.8656 1.31719 18.9 1.8L18.45 2.025C16.2797 3.1125 13.725 3.1125 11.5547 2.025C9.90938 1.2 8.02031 0.99375 6.23438 1.43906L1.5 2.625V0.75ZM1.5 14.7469L6.52031 13.6688C8.09531 13.3313 9.73594 13.4625 11.2406 14.0484L12.45 14.5172C14.5688 15.3422 16.9078 15.3984 19.0687 14.6813L19.5 14.5359V16.2047L17.8734 16.8141C16.0969 17.4797 14.1234 17.3766 12.4266 16.5281C10.3313 15.4781 7.92656 15.2156 5.65312 15.7828L1.5 16.8281V14.7469ZM1.5 13.2141V11.3719L6.29062 10.3453C7.99687 9.97969 9.77344 10.1625 11.3719 10.875L12.0187 11.1656C14.3906 12.2203 17.0812 12.2859 19.5 11.3484V12.9609L18.5953 13.2609C16.7719 13.8703 14.7891 13.8188 12.9984 13.125L11.7891 12.6562C10.0125 11.9672 8.07656 11.8125 6.21094 12.2109L1.5 13.2141ZM1.5 9.83906V4.17188L6.59531 2.89687C6.89531 2.82187 7.19531 2.77031 7.5 2.74219V8.67656C6.98906 8.70469 6.48281 8.77031 5.97656 8.87812L1.5 9.83906ZM9 8.71406V6.47344C9.81563 6.57188 10.6125 6.7875 11.3719 7.125L12.0187 7.41562C14.3906 8.47031 17.0812 8.53594 19.5 7.59844V9.74063L18.9703 9.94687C16.9219 10.7437 14.6391 10.6875 12.6281 9.79688L11.9813 9.50625C11.0297 9.08438 10.0219 8.81719 9 8.71406ZM9 4.96406V2.77969C9.65156 2.87344 10.2844 3.07031 10.8797 3.37031C13.4719 4.66875 16.5234 4.66875 19.1203 3.37031L19.5 3.17813V5.98594L18.9703 6.19219C16.9219 6.98906 14.6391 6.93281 12.6281 6.04219L11.9813 5.75156C11.0297 5.32969 10.0219 5.0625 9 4.95938V4.96406ZM4.125 5.625C4.125 5.42609 4.04598 5.23532 3.90533 5.09467C3.76468 4.95402 3.57391 4.875 3.375 4.875C3.17609 4.875 2.98532 4.95402 2.84467 5.09467C2.70402 5.23532 2.625 5.42609 2.625 5.625C2.625 5.82391 2.70402 6.01468 2.84467 6.15533C2.98532 6.29598 3.17609 6.375 3.375 6.375C3.57391 6.375 3.76468 6.29598 3.90533 6.15533C4.04598 6.01468 4.125 5.82391 4.125 5.625ZM5.625 5.625C5.82391 5.625 6.01468 5.54598 6.15533 5.40533C6.29598 5.26468 6.375 5.07391 6.375 4.875C6.375 4.67609 6.29598 4.48532 6.15533 4.34467C6.01468 4.20402 5.82391 4.125 5.625 4.125C5.42609 4.125 5.23532 4.20402 5.09467 4.34467C4.95402 4.48532 4.875 4.67609 4.875 4.875C4.875 5.07391 4.95402 5.26468 5.09467 5.40533C5.23532 5.54598 5.42609 5.625 5.625 5.625ZM4.125 7.875C4.125 7.67609 4.04598 7.48532 3.90533 7.34467C3.76468 7.20402 3.57391 7.125 3.375 7.125C3.17609 7.125 2.98532 7.20402 2.84467 7.34467C2.70402 7.48532 2.625 7.67609 2.625 7.875C2.625 8.07391 2.70402 8.26468 2.84467 8.40533C2.98532 8.54598 3.17609 8.625 3.375 8.625C3.57391 8.625 3.76468 8.54598 3.90533 8.40533C4.04598 8.26468 4.125 8.07391 4.125 7.875ZM5.625 7.875C5.82391 7.875 6.01468 7.79598 6.15533 7.65533C6.29598 7.51468 6.375 7.32391 6.375 7.125C6.375 6.92609 6.29598 6.73532 6.15533 6.59467C6.01468 6.45402 5.82391 6.375 5.625 6.375C5.42609 6.375 5.23532 6.45402 5.09467 6.59467C4.95402 6.73532 4.875 6.92609 4.875 7.125C4.875 7.32391 4.95402 7.51468 5.09467 7.65533C5.23532 7.79598 5.42609 7.875 5.625 7.875Z" fill="#333333"/>
</svg>
