<svg width="24" height="20" viewBox="0 0 24 20" fill="none" xmlns="http://www.w3.org/2000/svg">
<path d="M14.8042 4.929L11.1625 9.69567L9.10667 7.88317C8.82917 7.63734 8.40833 7.629 8.16667 7.9415C7.925 8.2165 7.95 8.63734 8.225 8.88317L10.8167 11.1665C10.9417 11.2748 11.0958 11.3332 11.2583 11.3332C11.2805 11.3332 11.3086 11.3339 11.3307 11.3326C11.5143 11.3144 11.6763 11.2186 11.7882 11.0714L15.8624 5.73811C16.0863 5.44515 16.0303 5.02728 15.7374 4.80311C15.4458 4.579 15.0292 4.63317 14.8042 4.929ZM22 12.6665C21.6315 12.6665 21.3333 12.9647 21.3333 13.3332C21.3333 13.7017 21.6315 13.9998 22 13.9998C22.3672 13.9998 22.6667 14.2987 22.6667 14.6665V17.3332C22.6667 17.701 22.3672 17.9998 22 17.9998H2C1.63292 17.9998 1.33333 17.6998 1.33333 17.3332V14.6665C1.33333 14.2998 1.63292 13.9998 2 13.9998C2.36833 13.9998 2.66667 13.6998 2.66667 13.3332C2.66667 12.9665 2.36833 12.6665 2 12.6665C0.897083 12.6665 0 13.5623 0 14.6665V17.3332C0 18.4373 0.897083 19.3332 2 19.3332H22C23.1029 19.3332 24 18.4361 24 17.3332V14.6665C24 13.5623 23.1042 12.6665 22 12.6665ZM3.33333 16.6665H20.6667C21.0348 16.6665 21.3333 16.368 21.3333 15.9998C21.3333 15.6317 21.0333 15.3332 20.6667 15.3332H20V2.6665C20 1.56192 19.1042 0.666504 18 0.666504H6C4.89583 0.666504 4 1.56192 4 2.6665V15.3332H3.33333C2.965 15.3332 2.66667 15.6332 2.66667 15.9998C2.66667 16.3665 2.965 16.6665 3.33333 16.6665ZM5.33333 2.6665C5.33333 2.29817 5.63333 1.99984 6 1.99984H18C18.3667 1.99984 18.6667 2.29817 18.6667 2.6665V15.3332H5.33333V2.6665Z" fill="#333333"/>
</svg>
