<svg width="24" height="24" viewBox="0 0 24 24" fill="none" xmlns="http://www.w3.org/2000/svg">
<path d="M24 12C24 18.6281 18.6281 24 12 24C5.37188 24 0 18.6281 0 12C0 9.50156 0.763125 7.18125 2.06953 5.25937C2.3025 4.91719 2.76891 4.82812 3.11109 5.0625C3.45375 5.25469 3.54281 5.76094 3.30984 6.10312C2.1675 7.78594 1.5 9.81563 1.5 12C1.5 17.7984 6.20156 22.5 12 22.5C17.7984 22.5 22.5 17.7984 22.5 12C22.5 6.45469 18.1969 1.91109 12.75 1.52625V5.25C12.75 5.6625 12.4125 6 12 6C11.5875 6 11.25 5.6625 11.25 5.25V0.75C11.25 0.335812 11.5875 0 12 0C18.6281 0 24 5.37188 24 12ZM12.5297 11.4703C12.825 11.7609 12.825 12.2391 12.5297 12.5297C12.2391 12.825 11.7609 12.825 11.4703 12.5297L6.97031 8.02969C6.675 7.73906 6.675 7.26094 6.97031 6.97031C7.26094 6.675 7.73906 6.675 8.02969 6.97031L12.5297 11.4703Z" fill="#333333"/>
</svg>
