<svg width="24" height="20" viewBox="0 0 24 20" fill="none" xmlns="http://www.w3.org/2000/svg">
<path d="M11.9625 7.29608C12.3667 7.29608 12.6667 7.63358 12.6667 7.96275V11.2961H13C13.3667 11.2961 13.6667 11.6336 13.6667 11.9628C13.6667 12.3669 13.3667 12.6294 13 12.6294H10.9625C10.6333 12.6294 10.2958 12.3669 10.2958 11.9628C10.2958 11.6336 10.6333 11.2961 10.9625 11.2961H11.2958V8.62942C10.9667 8.62942 10.6292 8.36692 10.6292 7.96275C10.6292 7.63358 10.9667 7.29608 11.2958 7.29608H11.9625ZM16.6667 9.96275C16.6667 12.6711 14.7958 15.3336 11.9625 15.3336C9.20417 15.3336 7.29583 12.6711 7.29583 9.96275C7.29583 7.29192 9.20417 4.62942 11.9625 4.62942C14.7958 4.62942 16.6667 7.29192 16.6667 9.96275ZM11.9625 14.0003C13.8417 14.0003 15.3333 12.2086 15.3333 9.96275C15.3333 7.75442 13.8417 5.96275 11.9625 5.96275C10.1583 5.96275 8.62917 7.75442 8.62917 9.96275C8.62917 12.2086 10.1583 14.0003 11.9625 14.0003ZM2.0275 2.63067C5.35 3.53775 8.675 2.6915 12 1.844C15.625 0.920251 19.25 -0.00391519 22.875 1.34942C23.5792 1.61233 24 2.31775 24 3.06942V15.9794C24 16.9753 22.9333 17.6336 21.9708 17.3711C18.65 16.4628 15.325 17.3086 12 18.1544C8.3375 19.0794 4.7125 20.0044 1.12375 18.6503C0.419167 18.3878 0 17.6836 0 16.9294V4.02108C0 3.02483 1.06708 2.36817 2.0275 2.63067ZM1.29583 4.02108V6.96275C2.80625 6.96275 3.9625 5.80442 3.9625 4.29608V4.31275C3.22917 4.25442 2.45333 4.12942 1.67625 3.87942C1.58583 3.89192 1.47292 3.90858 1.38917 3.96692C1.35208 3.99192 1.33708 4.01275 1.33375 4.01692L1.29583 4.02108ZM1.59 17.4003C2.3875 17.7003 3.18875 17.8378 3.9625 17.9503V17.6669C3.9625 16.1961 2.80625 15.0003 1.29583 15.0003V16.9294C1.29583 17.2169 1.48583 17.3628 1.59 17.4003ZM5.29583 17.9961C7.19583 17.9211 9.12917 17.5086 11.2208 16.9794C11.4 16.9336 11.5792 16.8878 11.7625 16.8419C13.9208 16.2878 16.2583 15.6919 18.6667 15.6503C18.675 13.4503 20.4625 11.6294 22.6667 11.6294V6.29608C20.4208 6.29608 18.6667 4.54192 18.6667 2.29608V2.00233C16.8042 2.04233 14.8708 2.49108 12.7792 3.0215C12.6 3.06692 12.4208 3.11317 12.2375 3.15942C10.0792 3.71275 7.74167 4.30858 5.29583 4.35025C5.325 6.55025 3.53667 8.29608 1.29583 8.29608V13.6669C3.5425 13.6669 5.29583 15.4211 5.29583 17.6669V17.9961ZM20 15.6878C20.7708 15.7461 21.5458 15.8711 22.325 16.0836C22.4125 16.1086 22.525 16.0919 22.6125 16.0336C22.65 16.0086 22.6625 15.9878 22.6292 15.9836C22.6292 15.9836 22.6667 15.9836 22.6667 15.9794V13.0003C21.1958 13.0003 20 14.1961 20 15.6669V15.6878ZM20 2.049V2.29608C20 3.80442 21.1958 4.96275 22.6667 4.96275V3.06942C22.6667 2.78442 22.5125 2.63733 22.4083 2.59858C21.6125 2.30067 20.8125 2.12692 20 2.049Z" fill="#333333"/>
</svg>
